<svg id="visual" viewBox="0 0 960 540" width="960" height="540" xmlns="http://www.w3.org/2000/svg" xmlns:xlink="http://www.w3.org/1999/xlink" version="1.1"><rect x="0" y="0" width="960" height="540" fill="#343434"></rect><path d="M0 393L40 381C80 369 160 345 240 339.3C320 333.7 400 346.3 480 366.8C560 387.3 640 415.7 720 406C800 396.3 880 348.7 920 324.8L960 301L960 541L920 541C880 541 800 541 720 541C640 541 560 541 480 541C400 541 320 541 240 541C160 541 80 541 40 541L0 541Z" fill="#525252" stroke-linecap="round" stroke-linejoin="miter"></path></svg>