<svg id="visual" viewBox="0 0 960 540" width="960" height="540" xmlns="http://www.w3.org/2000/svg" xmlns:xlink="http://www.w3.org/1999/xlink" version="1.1"><rect x="0" y="0" width="960" height="540" fill="#343434"></rect><path d="M0 466L32 471.2C64 476.3 128 486.7 192 493.5C256 500.3 320 503.7 384 495.7C448 487.7 512 468.3 576 455.3C640 442.3 704 435.7 768 444C832 452.3 896 475.7 928 487.3L960 499L960 541L928 541C896 541 832 541 768 541C704 541 640 541 576 541C512 541 448 541 384 541C320 541 256 541 192 541C128 541 64 541 32 541L0 541Z" fill="#525252" stroke-linecap="round" stroke-linejoin="miter"></path></svg>